G04*
G04 #@! TF.GenerationSoftware,Altium Limited,Altium Designer,19.1.6 (110)*
G04*
G04 Layer_Color=16711935*
%FSLAX25Y25*%
%MOIN*%
G70*
G01*
G75*
%ADD51C,0.04737*%
%ADD52C,0.08200*%
%ADD53C,0.06343*%
%ADD54C,0.03556*%
D51*
X91733Y116748D02*
D03*
X166233Y14748D02*
D03*
X13887Y36272D02*
D03*
D52*
X25641Y115391D02*
D03*
Y125391D02*
D03*
X165000Y126000D02*
D03*
X175000D02*
D03*
X185000D02*
D03*
X10000Y62500D02*
D03*
Y72500D02*
D03*
Y82500D02*
D03*
Y92500D02*
D03*
Y102500D02*
D03*
Y112500D02*
D03*
Y122500D02*
D03*
Y132500D02*
D03*
Y147500D02*
D03*
Y157500D02*
D03*
Y167500D02*
D03*
Y177500D02*
D03*
Y187500D02*
D03*
Y197500D02*
D03*
Y207500D02*
D03*
Y217500D02*
D03*
X200000D02*
D03*
Y207500D02*
D03*
Y197500D02*
D03*
Y187500D02*
D03*
Y177500D02*
D03*
Y167500D02*
D03*
Y147500D02*
D03*
Y137500D02*
D03*
Y127500D02*
D03*
Y117500D02*
D03*
Y107500D02*
D03*
Y97500D02*
D03*
D53*
X32000Y12063D02*
D03*
Y19937D02*
D03*
X115000Y12063D02*
D03*
Y19937D02*
D03*
D54*
X78000Y104000D02*
D03*
X102000D02*
D03*
X96000D02*
D03*
X90000D02*
D03*
X84000D02*
D03*
X66000D02*
D03*
X72000D02*
D03*
X60000D02*
D03*
M02*
