G04*
G04 #@! TF.GenerationSoftware,Altium Limited,Altium Designer,19.1.6 (110)*
G04*
G04 Layer_Color=8388736*
%FSLAX25Y25*%
%MOIN*%
G70*
G01*
G75*
%ADD34R,0.11800X0.05300*%
%ADD35R,0.08674X0.04737*%
%ADD36R,0.04737X0.08674*%
%ADD37R,0.04737X0.13280*%
%ADD38R,0.02375X0.02375*%
%ADD39R,0.03162X0.03162*%
%ADD40R,0.04737X0.05131*%
%ADD41R,0.06800X0.03800*%
%ADD42R,0.04343X0.07099*%
%ADD43R,0.05131X0.04737*%
%ADD44R,0.05524X0.03556*%
%ADD45R,0.12611X0.06312*%
%ADD46R,0.04737X0.07099*%
%ADD47R,0.22060X0.25209*%
%ADD48R,0.06312X0.07099*%
%ADD49R,0.15800X0.08700*%
%ADD50R,0.06700X0.08700*%
%ADD51C,0.04737*%
%ADD52C,0.08200*%
%ADD53C,0.06343*%
%ADD54C,0.03556*%
D34*
X42500Y37000D02*
D03*
Y44874D02*
D03*
Y52748D02*
D03*
Y60622D02*
D03*
Y68496D02*
D03*
Y76370D02*
D03*
Y84244D02*
D03*
Y92118D02*
D03*
X102343D02*
D03*
Y84244D02*
D03*
Y76370D02*
D03*
Y68496D02*
D03*
Y60622D02*
D03*
Y52748D02*
D03*
Y44874D02*
D03*
Y37000D02*
D03*
D35*
X189504Y12000D02*
D03*
X202496Y22000D02*
D03*
D36*
X114000Y113504D02*
D03*
X104000Y126496D02*
D03*
X50000Y113504D02*
D03*
X70000D02*
D03*
X40000Y126496D02*
D03*
X60000D02*
D03*
X52000Y210504D02*
D03*
X72000D02*
D03*
X42000Y223496D02*
D03*
X62000D02*
D03*
X148000Y210504D02*
D03*
X168000D02*
D03*
X138000Y223496D02*
D03*
X158000D02*
D03*
X125000Y150996D02*
D03*
X145000D02*
D03*
X165000D02*
D03*
X185000D02*
D03*
X115000Y138004D02*
D03*
X135000D02*
D03*
X155000D02*
D03*
X175000D02*
D03*
X125000Y200996D02*
D03*
X145000D02*
D03*
X165000D02*
D03*
X185000D02*
D03*
X115000Y188004D02*
D03*
X135000D02*
D03*
X155000D02*
D03*
X175000D02*
D03*
X35000Y150996D02*
D03*
X55000D02*
D03*
X75000D02*
D03*
X95000D02*
D03*
X25000Y138004D02*
D03*
X45000D02*
D03*
X65000D02*
D03*
X85000D02*
D03*
X35000Y200996D02*
D03*
X55000D02*
D03*
X75000D02*
D03*
X95000D02*
D03*
X25000Y188004D02*
D03*
X45000D02*
D03*
X65000D02*
D03*
X85000D02*
D03*
D37*
X128000Y9000D02*
D03*
Y29000D02*
D03*
X148000D02*
D03*
Y9000D02*
D03*
X138000D02*
D03*
Y29000D02*
D03*
D38*
X146425Y48000D02*
D03*
X149575D02*
D03*
X132925D02*
D03*
X136075D02*
D03*
X139925D02*
D03*
X143075D02*
D03*
X125925D02*
D03*
X129075D02*
D03*
D39*
X148000Y51150D02*
D03*
Y44850D02*
D03*
X134500Y51150D02*
D03*
Y44850D02*
D03*
X141500Y51150D02*
D03*
Y44850D02*
D03*
X127500Y51150D02*
D03*
Y44850D02*
D03*
D40*
X159000Y166846D02*
D03*
Y160154D02*
D03*
X69500Y166846D02*
D03*
Y160154D02*
D03*
D41*
X95000Y209500D02*
D03*
Y224500D02*
D03*
X115000D02*
D03*
Y209500D02*
D03*
D42*
X129291Y66000D02*
D03*
X140709D02*
D03*
X156291Y52000D02*
D03*
X167709D02*
D03*
D43*
X112654D02*
D03*
X119346D02*
D03*
X112654Y37000D02*
D03*
X119346D02*
D03*
X25654Y84500D02*
D03*
X32346D02*
D03*
X25654Y76500D02*
D03*
X32346D02*
D03*
X25654Y68500D02*
D03*
X32346D02*
D03*
X119346Y92000D02*
D03*
X112654D02*
D03*
X26346Y217500D02*
D03*
X19654D02*
D03*
X189346Y212500D02*
D03*
X182654D02*
D03*
Y221500D02*
D03*
X189346D02*
D03*
X29596Y153250D02*
D03*
X22904D02*
D03*
X184154Y115500D02*
D03*
X190846D02*
D03*
X32346Y60500D02*
D03*
X25654D02*
D03*
Y52500D02*
D03*
X32346D02*
D03*
D44*
X189783Y109000D02*
D03*
X175217D02*
D03*
D45*
X136949Y169500D02*
D03*
X118051D02*
D03*
X46949D02*
D03*
X28051D02*
D03*
D46*
X196976Y48602D02*
D03*
X179024D02*
D03*
D47*
X188000Y77343D02*
D03*
D48*
X172012Y41000D02*
D03*
X160988D02*
D03*
X168012Y63000D02*
D03*
X156988D02*
D03*
D49*
X148000Y104900D02*
D03*
D50*
X157100Y80100D02*
D03*
X148100D02*
D03*
X139100D02*
D03*
D51*
X91733Y116748D02*
D03*
X166233Y14748D02*
D03*
X13887Y36272D02*
D03*
D52*
X25641Y115391D02*
D03*
Y125391D02*
D03*
X165000Y126000D02*
D03*
X175000D02*
D03*
X185000D02*
D03*
X10000Y62500D02*
D03*
Y72500D02*
D03*
Y82500D02*
D03*
Y92500D02*
D03*
Y102500D02*
D03*
Y112500D02*
D03*
Y122500D02*
D03*
Y132500D02*
D03*
Y147500D02*
D03*
Y157500D02*
D03*
Y167500D02*
D03*
Y177500D02*
D03*
Y187500D02*
D03*
Y197500D02*
D03*
Y207500D02*
D03*
Y217500D02*
D03*
X200000D02*
D03*
Y207500D02*
D03*
Y197500D02*
D03*
Y187500D02*
D03*
Y177500D02*
D03*
Y167500D02*
D03*
Y147500D02*
D03*
Y137500D02*
D03*
Y127500D02*
D03*
Y117500D02*
D03*
Y107500D02*
D03*
Y97500D02*
D03*
D53*
X32000Y12063D02*
D03*
Y19937D02*
D03*
X115000Y12063D02*
D03*
Y19937D02*
D03*
D54*
X78000Y104000D02*
D03*
X102000D02*
D03*
X96000D02*
D03*
X90000D02*
D03*
X84000D02*
D03*
X66000D02*
D03*
X72000D02*
D03*
X60000D02*
D03*
M02*
