G04*
G04 #@! TF.GenerationSoftware,Altium Limited,Altium Designer,19.1.6 (110)*
G04*
G04 Layer_Physical_Order=2*
G04 Layer_Color=16711680*
%FSLAX25Y25*%
%MOIN*%
G70*
G01*
G75*
%ADD55C,0.03200*%
%ADD56C,0.01600*%
%ADD57C,0.04000*%
%ADD59C,0.03937*%
%ADD60C,0.07400*%
%ADD61C,0.05543*%
%ADD62C,0.03962*%
%ADD63C,0.04356*%
%ADD64C,0.02781*%
G36*
X206662Y227923D02*
Y2039D01*
X106223D01*
Y32000D01*
X106130Y32468D01*
X105865Y32865D01*
X105468Y33130D01*
X105000Y33224D01*
X40000D01*
X39532Y33130D01*
X39135Y32865D01*
X38870Y32468D01*
X38776Y32000D01*
Y2039D01*
X2039D01*
Y227922D01*
X47500D01*
X47516Y227925D01*
X47532Y227922D01*
X50016Y227961D01*
X109999D01*
X206662Y227923D01*
D02*
G37*
%LPC*%
G36*
X200000Y222442D02*
X198721Y222274D01*
X197529Y221780D01*
X196505Y220995D01*
X195720Y219971D01*
X195226Y218779D01*
X195058Y217500D01*
X195226Y216221D01*
X195720Y215029D01*
X196505Y214005D01*
X197529Y213220D01*
X198639Y212760D01*
X198683Y212500D01*
X198639Y212240D01*
X197529Y211780D01*
X196505Y210995D01*
X195720Y209971D01*
X195226Y208779D01*
X195058Y207500D01*
X195226Y206221D01*
X195720Y205029D01*
X196505Y204005D01*
X197529Y203220D01*
X198639Y202760D01*
X198683Y202500D01*
X198639Y202240D01*
X197529Y201780D01*
X196722Y201161D01*
X187442Y210442D01*
X186780Y210884D01*
X186000Y211039D01*
X128845D01*
X122171Y217713D01*
X122208Y218000D01*
X122099Y218830D01*
X121779Y219604D01*
X121269Y220269D01*
X120604Y220779D01*
X119830Y221099D01*
X119000Y221208D01*
X118170Y221099D01*
X117396Y220779D01*
X116731Y220269D01*
X116221Y219604D01*
X115901Y218830D01*
X115792Y218000D01*
X115901Y217170D01*
X116221Y216396D01*
X116731Y215731D01*
X117396Y215221D01*
X118170Y214901D01*
X119000Y214792D01*
X119287Y214829D01*
X126558Y207558D01*
X127220Y207116D01*
X128000Y206961D01*
X185155D01*
X195125Y196992D01*
X195226Y196221D01*
X195720Y195029D01*
X196505Y194005D01*
X197529Y193220D01*
X198639Y192760D01*
X198683Y192500D01*
X198639Y192240D01*
X197529Y191780D01*
X196505Y190995D01*
X195720Y189971D01*
X195226Y188779D01*
X195058Y187500D01*
X195226Y186221D01*
X195720Y185029D01*
X196505Y184005D01*
X197529Y183220D01*
X198639Y182760D01*
X198683Y182500D01*
X198639Y182240D01*
X197529Y181780D01*
X196505Y180995D01*
X195720Y179971D01*
X195226Y178779D01*
X195058Y177500D01*
X195226Y176221D01*
X195720Y175029D01*
X196505Y174005D01*
X197529Y173220D01*
X198639Y172760D01*
X198683Y172500D01*
X198639Y172240D01*
X197529Y171780D01*
X196505Y170995D01*
X195720Y169971D01*
X195226Y168779D01*
X195058Y167500D01*
X195226Y166221D01*
X195720Y165029D01*
X196505Y164005D01*
X197529Y163220D01*
X198721Y162726D01*
X200000Y162558D01*
X201279Y162726D01*
X202471Y163220D01*
X203495Y164005D01*
X204280Y165029D01*
X204774Y166221D01*
X204942Y167500D01*
X204774Y168779D01*
X204280Y169971D01*
X203495Y170995D01*
X202471Y171780D01*
X201361Y172240D01*
X201317Y172500D01*
X201361Y172760D01*
X202471Y173220D01*
X203495Y174005D01*
X204280Y175029D01*
X204774Y176221D01*
X204942Y177500D01*
X204774Y178779D01*
X204280Y179971D01*
X203495Y180995D01*
X202471Y181780D01*
X201361Y182240D01*
X201317Y182500D01*
X201361Y182760D01*
X202471Y183220D01*
X203495Y184005D01*
X204280Y185029D01*
X204774Y186221D01*
X204942Y187500D01*
X204774Y188779D01*
X204280Y189971D01*
X203495Y190995D01*
X202471Y191780D01*
X201361Y192240D01*
X201317Y192500D01*
X201361Y192760D01*
X202471Y193220D01*
X203495Y194005D01*
X204280Y195029D01*
X204774Y196221D01*
X204942Y197500D01*
X204774Y198779D01*
X204280Y199971D01*
X203495Y200995D01*
X202471Y201780D01*
X201361Y202240D01*
X201317Y202500D01*
X201361Y202760D01*
X202471Y203220D01*
X203495Y204005D01*
X204280Y205029D01*
X204774Y206221D01*
X204942Y207500D01*
X204774Y208779D01*
X204280Y209971D01*
X203495Y210995D01*
X202471Y211780D01*
X201361Y212240D01*
X201317Y212500D01*
X201361Y212760D01*
X202471Y213220D01*
X203495Y214005D01*
X204280Y215029D01*
X204774Y216221D01*
X204942Y217500D01*
X204774Y218779D01*
X204280Y219971D01*
X203495Y220995D01*
X202471Y221780D01*
X201279Y222274D01*
X200000Y222442D01*
D02*
G37*
G36*
X204635Y136700D02*
X200800D01*
Y132865D01*
X201227Y132921D01*
X202370Y133395D01*
X203352Y134148D01*
X204105Y135130D01*
X204579Y136273D01*
X204635Y136700D01*
D02*
G37*
G36*
X10000Y222442D02*
X8721Y222274D01*
X7529Y221780D01*
X6505Y220995D01*
X5720Y219971D01*
X5226Y218779D01*
X5058Y217500D01*
X5226Y216221D01*
X5720Y215029D01*
X6505Y214005D01*
X7529Y213220D01*
X8639Y212760D01*
X8683Y212500D01*
X8639Y212240D01*
X7529Y211780D01*
X6505Y210995D01*
X5720Y209971D01*
X5226Y208779D01*
X5058Y207500D01*
X5226Y206221D01*
X5720Y205029D01*
X6505Y204005D01*
X7529Y203220D01*
X8639Y202760D01*
X8683Y202500D01*
X8639Y202240D01*
X7529Y201780D01*
X6505Y200995D01*
X5720Y199971D01*
X5226Y198779D01*
X5058Y197500D01*
X5226Y196221D01*
X5720Y195029D01*
X6505Y194005D01*
X7529Y193220D01*
X8639Y192760D01*
X8683Y192500D01*
X8639Y192240D01*
X7529Y191780D01*
X6505Y190995D01*
X5720Y189971D01*
X5226Y188779D01*
X5058Y187500D01*
X5226Y186221D01*
X5720Y185029D01*
X6505Y184005D01*
X7529Y183220D01*
X8639Y182760D01*
X8683Y182500D01*
X8639Y182240D01*
X7529Y181780D01*
X6505Y180995D01*
X5720Y179971D01*
X5226Y178779D01*
X5058Y177500D01*
X5226Y176221D01*
X5720Y175029D01*
X6505Y174005D01*
X7529Y173220D01*
X8639Y172760D01*
X8683Y172500D01*
X8639Y172240D01*
X7529Y171780D01*
X6505Y170995D01*
X5720Y169971D01*
X5226Y168779D01*
X5058Y167500D01*
X5226Y166221D01*
X5720Y165029D01*
X6505Y164005D01*
X7529Y163220D01*
X8639Y162760D01*
X8683Y162500D01*
X8639Y162240D01*
X7529Y161780D01*
X6505Y160995D01*
X5720Y159971D01*
X5226Y158779D01*
X5058Y157500D01*
X5226Y156221D01*
X5720Y155029D01*
X6505Y154005D01*
X7529Y153220D01*
X8639Y152760D01*
X8683Y152500D01*
X8639Y152240D01*
X7529Y151780D01*
X6505Y150995D01*
X5720Y149971D01*
X5226Y148779D01*
X5058Y147500D01*
X5226Y146221D01*
X5720Y145029D01*
X6505Y144005D01*
X7529Y143220D01*
X8721Y142726D01*
X10000Y142558D01*
X11279Y142726D01*
X11711Y142905D01*
X18058Y136558D01*
X18720Y136116D01*
X19500Y135961D01*
X33424D01*
X33615Y135499D01*
X32655Y134539D01*
X14459D01*
X14280Y134971D01*
X13495Y135995D01*
X12471Y136780D01*
X11279Y137274D01*
X10000Y137442D01*
X8721Y137274D01*
X7529Y136780D01*
X6505Y135995D01*
X5720Y134971D01*
X5226Y133779D01*
X5058Y132500D01*
X5226Y131221D01*
X5720Y130029D01*
X6505Y129005D01*
X7529Y128220D01*
X8639Y127760D01*
X8683Y127500D01*
X8639Y127240D01*
X7529Y126780D01*
X6505Y125995D01*
X5720Y124971D01*
X5226Y123779D01*
X5058Y122500D01*
X5226Y121221D01*
X5720Y120029D01*
X6505Y119005D01*
X7529Y118220D01*
X8639Y117760D01*
X8683Y117500D01*
X8639Y117240D01*
X7529Y116780D01*
X6505Y115995D01*
X5720Y114971D01*
X5226Y113779D01*
X5058Y112500D01*
X5226Y111221D01*
X5720Y110029D01*
X6505Y109005D01*
X7529Y108220D01*
X8639Y107760D01*
X8683Y107500D01*
X8639Y107240D01*
X7529Y106780D01*
X6505Y105995D01*
X5720Y104971D01*
X5226Y103779D01*
X5058Y102500D01*
X5226Y101221D01*
X5720Y100029D01*
X6505Y99005D01*
X7529Y98220D01*
X8639Y97760D01*
X8683Y97500D01*
X8639Y97240D01*
X7529Y96780D01*
X6505Y95995D01*
X5720Y94971D01*
X5226Y93779D01*
X5058Y92500D01*
X5226Y91221D01*
X5720Y90029D01*
X6505Y89005D01*
X7529Y88220D01*
X8639Y87760D01*
X8683Y87500D01*
X8639Y87240D01*
X7529Y86780D01*
X6505Y85995D01*
X5720Y84971D01*
X5226Y83779D01*
X5058Y82500D01*
X5226Y81221D01*
X5720Y80029D01*
X6505Y79005D01*
X7529Y78220D01*
X8721Y77726D01*
X9289Y77651D01*
Y77147D01*
X8773Y77079D01*
X7630Y76605D01*
X6648Y75852D01*
X5895Y74870D01*
X5421Y73727D01*
X5365Y73300D01*
X10000D01*
Y71700D01*
X5365D01*
X5421Y71273D01*
X5895Y70130D01*
X6648Y69148D01*
X7630Y68395D01*
X8773Y67921D01*
X9289Y67853D01*
Y67349D01*
X8721Y67274D01*
X7529Y66780D01*
X6505Y65995D01*
X5720Y64971D01*
X5226Y63779D01*
X5058Y62500D01*
X5226Y61221D01*
X5720Y60029D01*
X6505Y59005D01*
X7529Y58220D01*
X8721Y57726D01*
X10000Y57558D01*
X11279Y57726D01*
X12471Y58220D01*
X13495Y59005D01*
X13961Y59613D01*
X14461Y59443D01*
Y55500D01*
X14616Y54720D01*
X15058Y54058D01*
X24829Y44287D01*
X24792Y44000D01*
X24901Y43170D01*
X25221Y42396D01*
X25731Y41731D01*
X26396Y41221D01*
X27170Y40901D01*
X28000Y40792D01*
X28830Y40901D01*
X29604Y41221D01*
X30269Y41731D01*
X30779Y42396D01*
X31099Y43170D01*
X31208Y44000D01*
X31099Y44830D01*
X30779Y45604D01*
X30269Y46269D01*
X29604Y46779D01*
X28830Y47099D01*
X28000Y47208D01*
X27713Y47171D01*
X18539Y56345D01*
Y73425D01*
X19039Y73662D01*
X19670Y73401D01*
X20500Y73291D01*
X21330Y73401D01*
X22104Y73721D01*
X22769Y74231D01*
X23279Y74896D01*
X23599Y75670D01*
X23708Y76500D01*
X23599Y77330D01*
X23279Y78104D01*
X22769Y78769D01*
X22539Y78945D01*
Y81655D01*
X28845Y87961D01*
X31000D01*
X31780Y88116D01*
X32442Y88558D01*
X33845Y89961D01*
X91555D01*
X91731Y89731D01*
X92396Y89221D01*
X93170Y88901D01*
X94000Y88792D01*
X94830Y88901D01*
X95604Y89221D01*
X96269Y89731D01*
X96779Y90396D01*
X97099Y91170D01*
X97208Y92000D01*
X97099Y92830D01*
X96838Y93461D01*
X97075Y93961D01*
X106155D01*
X109961Y90155D01*
Y76000D01*
X110116Y75220D01*
X110558Y74558D01*
X120558Y64558D01*
X120558Y64558D01*
X121220Y64116D01*
X122000Y63961D01*
X122000Y63961D01*
X129655D01*
X138329Y55287D01*
X138292Y55000D01*
X138401Y54170D01*
X138721Y53396D01*
X139231Y52731D01*
X139896Y52221D01*
X140670Y51901D01*
X141500Y51792D01*
X142330Y51901D01*
X143104Y52221D01*
X143769Y52731D01*
X144279Y53396D01*
X144479Y53881D01*
X145021D01*
X145221Y53396D01*
X145731Y52731D01*
X146396Y52221D01*
X147170Y51901D01*
X148000Y51792D01*
X148830Y51901D01*
X149604Y52221D01*
X150269Y52731D01*
X150779Y53396D01*
X151099Y54170D01*
X151208Y55000D01*
X151099Y55830D01*
X150779Y56604D01*
X150269Y57269D01*
X149604Y57779D01*
X148830Y58099D01*
X148000Y58209D01*
X147713Y58171D01*
X135442Y70442D01*
X134780Y70884D01*
X134000Y71039D01*
X124345D01*
X117539Y77845D01*
Y92500D01*
X117384Y93280D01*
X116942Y93942D01*
X110442Y100442D01*
X109780Y100884D01*
X109000Y101039D01*
X104512D01*
X104342Y101539D01*
X104409Y101591D01*
X104951Y102296D01*
X105291Y103118D01*
X105407Y104000D01*
X105291Y104882D01*
X104951Y105704D01*
X104409Y106409D01*
X103704Y106951D01*
X102882Y107291D01*
X102000Y107407D01*
X101118Y107291D01*
X100296Y106951D01*
X99591Y106409D01*
X99315Y106050D01*
X98685D01*
X98409Y106409D01*
X97704Y106951D01*
X96882Y107291D01*
X96000Y107407D01*
X95118Y107291D01*
X94296Y106951D01*
X93591Y106409D01*
X93315Y106050D01*
X92685D01*
X92409Y106409D01*
X91704Y106951D01*
X90882Y107291D01*
X90000Y107407D01*
X89118Y107291D01*
X88296Y106951D01*
X87591Y106409D01*
X87315Y106050D01*
X86685D01*
X86409Y106409D01*
X85704Y106951D01*
X84882Y107291D01*
X84000Y107407D01*
X83118Y107291D01*
X82296Y106951D01*
X81591Y106409D01*
X81315Y106050D01*
X80685D01*
X80409Y106409D01*
X79704Y106951D01*
X78882Y107291D01*
X78000Y107407D01*
X77118Y107291D01*
X76296Y106951D01*
X75591Y106409D01*
X75315Y106050D01*
X74685D01*
X74409Y106409D01*
X73704Y106951D01*
X72882Y107291D01*
X72000Y107407D01*
X71118Y107291D01*
X70296Y106951D01*
X69591Y106409D01*
X69315Y106050D01*
X68685D01*
X68409Y106409D01*
X67704Y106951D01*
X66882Y107291D01*
X66000Y107407D01*
X65118Y107291D01*
X64296Y106951D01*
X63591Y106409D01*
X63049Y105704D01*
X62709Y104882D01*
X62593Y104000D01*
X62709Y103118D01*
X63049Y102296D01*
X63591Y101591D01*
X63658Y101539D01*
X63488Y101039D01*
X39845D01*
X35171Y105713D01*
X35208Y106000D01*
X35099Y106830D01*
X34779Y107604D01*
X34269Y108269D01*
X33604Y108779D01*
X32830Y109099D01*
X32000Y109208D01*
X31769Y109178D01*
X31535Y109652D01*
X33442Y111558D01*
X33884Y112220D01*
X34039Y113000D01*
Y125155D01*
X38845Y129961D01*
X89000D01*
X89780Y130116D01*
X90442Y130558D01*
X97845Y137961D01*
X126314D01*
X126505Y137499D01*
X116274Y127268D01*
X116269Y127269D01*
X115604Y127779D01*
X114830Y128099D01*
X114000Y128208D01*
X113170Y128099D01*
X112396Y127779D01*
X111731Y127269D01*
X111221Y126604D01*
X110901Y125830D01*
X110792Y125000D01*
X110901Y124170D01*
X111176Y123506D01*
Y122494D01*
X110901Y121830D01*
X110792Y121000D01*
X110901Y120170D01*
X111221Y119396D01*
X111731Y118731D01*
X112396Y118221D01*
X113170Y117901D01*
X114000Y117792D01*
X114830Y117901D01*
X115604Y118221D01*
X116269Y118731D01*
X116779Y119396D01*
X117054Y120060D01*
X130170Y133176D01*
X189272D01*
Y129259D01*
X188799Y129098D01*
X188495Y129495D01*
X187471Y130280D01*
X186279Y130774D01*
X185000Y130942D01*
X183721Y130774D01*
X182529Y130280D01*
X181505Y129495D01*
X180720Y128471D01*
X180260Y127361D01*
X180000Y127317D01*
X179740Y127361D01*
X179280Y128471D01*
X178495Y129495D01*
X177471Y130280D01*
X176279Y130774D01*
X175000Y130942D01*
X173721Y130774D01*
X172529Y130280D01*
X171505Y129495D01*
X170720Y128471D01*
X170226Y127279D01*
X170151Y126711D01*
X169647D01*
X169579Y127227D01*
X169105Y128370D01*
X168352Y129352D01*
X167370Y130105D01*
X166227Y130579D01*
X165800Y130635D01*
Y126000D01*
Y121365D01*
X166227Y121421D01*
X167370Y121895D01*
X168352Y122648D01*
X169105Y123630D01*
X169579Y124773D01*
X169647Y125289D01*
X170151D01*
X170226Y124721D01*
X170720Y123529D01*
X171505Y122505D01*
X172529Y121720D01*
X173721Y121226D01*
X175000Y121058D01*
X176279Y121226D01*
X177471Y121720D01*
X178495Y122505D01*
X179280Y123529D01*
X179740Y124639D01*
X180000Y124683D01*
X180260Y124639D01*
X180720Y123529D01*
X181505Y122505D01*
X182529Y121720D01*
X183721Y121226D01*
X185000Y121058D01*
X186279Y121226D01*
X187471Y121720D01*
X188495Y122505D01*
X188799Y122902D01*
X189272Y122741D01*
Y52837D01*
X183718Y47282D01*
X183205Y46614D01*
X182882Y45835D01*
X182772Y45000D01*
X182882Y44165D01*
X183176Y43456D01*
Y42494D01*
X182901Y41830D01*
X182792Y41000D01*
X182901Y40170D01*
X183221Y39396D01*
X183731Y38731D01*
X184396Y38221D01*
X185170Y37901D01*
X186000Y37792D01*
X186830Y37901D01*
X187604Y38221D01*
X188269Y38731D01*
X188779Y39396D01*
X189099Y40170D01*
X189208Y41000D01*
X189099Y41830D01*
X188824Y42494D01*
Y43260D01*
X194782Y49218D01*
X195295Y49886D01*
X195618Y50665D01*
X195728Y51500D01*
Y94241D01*
X196201Y94402D01*
X196505Y94005D01*
X197529Y93220D01*
X198721Y92726D01*
X200000Y92558D01*
X201279Y92726D01*
X202471Y93220D01*
X203495Y94005D01*
X204280Y95029D01*
X204774Y96221D01*
X204942Y97500D01*
X204774Y98779D01*
X204280Y99971D01*
X203495Y100995D01*
X202471Y101780D01*
X201361Y102240D01*
X201317Y102500D01*
X201361Y102760D01*
X202471Y103220D01*
X203495Y104005D01*
X204280Y105029D01*
X204774Y106221D01*
X204942Y107500D01*
X204774Y108779D01*
X204280Y109971D01*
X203495Y110995D01*
X202471Y111780D01*
X201361Y112240D01*
X201317Y112500D01*
X201361Y112760D01*
X202471Y113220D01*
X203495Y114005D01*
X204280Y115029D01*
X204774Y116221D01*
X204942Y117500D01*
X204774Y118779D01*
X204280Y119971D01*
X203495Y120995D01*
X202471Y121780D01*
X201279Y122274D01*
X200711Y122349D01*
Y122853D01*
X201227Y122921D01*
X202370Y123395D01*
X203352Y124148D01*
X204105Y125130D01*
X204579Y126273D01*
X204635Y126700D01*
X200000D01*
Y127500D01*
X199200D01*
Y132135D01*
X198773Y132079D01*
X197630Y131605D01*
X196648Y130852D01*
X196228Y130304D01*
X195728Y130474D01*
Y134526D01*
X196228Y134696D01*
X196648Y134148D01*
X197630Y133395D01*
X198773Y132921D01*
X199200Y132865D01*
Y137500D01*
X200000D01*
Y138300D01*
X204635D01*
X204579Y138727D01*
X204105Y139870D01*
X203352Y140852D01*
X202370Y141605D01*
X201227Y142079D01*
X200711Y142147D01*
Y142651D01*
X201279Y142726D01*
X202471Y143220D01*
X203495Y144005D01*
X204280Y145029D01*
X204774Y146221D01*
X204942Y147500D01*
X204774Y148779D01*
X204280Y149971D01*
X203495Y150995D01*
X202471Y151780D01*
X201279Y152274D01*
X200000Y152442D01*
X198721Y152274D01*
X197529Y151780D01*
X196505Y150995D01*
X196300Y150728D01*
X195728D01*
Y155000D01*
X195618Y155835D01*
X195295Y156614D01*
X194782Y157282D01*
X168782Y183282D01*
X168114Y183795D01*
X167335Y184118D01*
X166500Y184228D01*
X165039D01*
Y186555D01*
X165269Y186731D01*
X165779Y187396D01*
X166099Y188170D01*
X166208Y189000D01*
X166099Y189830D01*
X165779Y190604D01*
X165269Y191269D01*
X164604Y191779D01*
X163830Y192099D01*
X163000Y192208D01*
X162170Y192099D01*
X161396Y191779D01*
X160731Y191269D01*
X160221Y190604D01*
X159901Y189830D01*
X159792Y189000D01*
X159901Y188170D01*
X160221Y187396D01*
X160731Y186731D01*
X160961Y186555D01*
Y184228D01*
X25000D01*
X24165Y184118D01*
X23386Y183795D01*
X22718Y183282D01*
X22205Y182614D01*
X21882Y181835D01*
X21772Y181000D01*
Y178003D01*
X21272Y177772D01*
X21039Y177955D01*
Y188000D01*
X20884Y188780D01*
X20442Y189442D01*
X14448Y195435D01*
X14774Y196221D01*
X14942Y197500D01*
X14774Y198779D01*
X14280Y199971D01*
X13495Y200995D01*
X12471Y201780D01*
X11361Y202240D01*
X11317Y202500D01*
X11361Y202760D01*
X12471Y203220D01*
X13495Y204005D01*
X14280Y205029D01*
X14774Y206221D01*
X14942Y207500D01*
X14774Y208779D01*
X14280Y209971D01*
X13495Y210995D01*
X12471Y211780D01*
X11361Y212240D01*
X11317Y212500D01*
X11361Y212760D01*
X12471Y213220D01*
X13495Y214005D01*
X14280Y215029D01*
X14774Y216221D01*
X14942Y217500D01*
X14774Y218779D01*
X14280Y219971D01*
X13495Y220995D01*
X12471Y221780D01*
X11279Y222274D01*
X10000Y222442D01*
D02*
G37*
G36*
X200800Y132135D02*
Y128300D01*
X204635D01*
X204579Y128727D01*
X204105Y129870D01*
X203352Y130852D01*
X202370Y131605D01*
X201227Y132079D01*
X200800Y132135D01*
D02*
G37*
G36*
X164200Y130635D02*
X163773Y130579D01*
X162630Y130105D01*
X161648Y129352D01*
X160895Y128370D01*
X160421Y127227D01*
X160365Y126800D01*
X164200D01*
Y130635D01*
D02*
G37*
G36*
Y125200D02*
X160365D01*
X160421Y124773D01*
X160895Y123630D01*
X161648Y122648D01*
X162630Y121895D01*
X163773Y121421D01*
X164200Y121365D01*
Y125200D01*
D02*
G37*
G36*
X91733Y119944D02*
X90906Y119835D01*
X90135Y119516D01*
X89473Y119008D01*
X88965Y118346D01*
X88646Y117575D01*
X88537Y116748D01*
X88646Y115921D01*
X88965Y115150D01*
X89473Y114488D01*
X90135Y113980D01*
X90906Y113661D01*
X91733Y113552D01*
X92560Y113661D01*
X93331Y113980D01*
X93993Y114488D01*
X94501Y115150D01*
X94820Y115921D01*
X94929Y116748D01*
X94820Y117575D01*
X94501Y118346D01*
X93993Y119008D01*
X93331Y119516D01*
X92560Y119835D01*
X91733Y119944D01*
D02*
G37*
G36*
X160000Y74208D02*
X159170Y74099D01*
X158506Y73824D01*
X156494D01*
X155830Y74099D01*
X155000Y74208D01*
X154170Y74099D01*
X153396Y73779D01*
X152731Y73269D01*
X152221Y72604D01*
X151901Y71830D01*
X151792Y71000D01*
X151901Y70170D01*
X152221Y69396D01*
X152731Y68731D01*
X153396Y68221D01*
X154170Y67901D01*
X155000Y67791D01*
X155830Y67901D01*
X156494Y68176D01*
X158506D01*
X159170Y67901D01*
X160000Y67791D01*
X160830Y67901D01*
X161604Y68221D01*
X162269Y68731D01*
X162779Y69396D01*
X163099Y70170D01*
X163208Y71000D01*
X163099Y71830D01*
X162779Y72604D01*
X162269Y73269D01*
X161604Y73779D01*
X160830Y74099D01*
X160000Y74208D01*
D02*
G37*
G36*
X13887Y39468D02*
X13060Y39359D01*
X12289Y39040D01*
X11627Y38532D01*
X11119Y37870D01*
X10800Y37099D01*
X10691Y36272D01*
X10800Y35445D01*
X11119Y34674D01*
X11627Y34012D01*
X12289Y33504D01*
X13060Y33185D01*
X13887Y33076D01*
X14714Y33185D01*
X15485Y33504D01*
X16147Y34012D01*
X16655Y34674D01*
X16974Y35445D01*
X17083Y36272D01*
X16974Y37099D01*
X16655Y37870D01*
X16147Y38532D01*
X15485Y39040D01*
X14714Y39359D01*
X13887Y39468D01*
D02*
G37*
G36*
X115000Y23943D02*
X113963Y23806D01*
X112997Y23406D01*
X112168Y22770D01*
X111531Y21940D01*
X111131Y20974D01*
X110994Y19937D01*
X111131Y18900D01*
X111531Y17934D01*
X112168Y17105D01*
X112997Y16468D01*
X113735Y16162D01*
X113735Y15621D01*
X113098Y15357D01*
X112310Y14753D01*
X111706Y13965D01*
X111326Y13048D01*
X111301Y12863D01*
X115000D01*
X118699D01*
X118674Y13048D01*
X118294Y13965D01*
X117690Y14753D01*
X116902Y15357D01*
X116265Y15621D01*
X116265Y16162D01*
X117003Y16468D01*
X117833Y17105D01*
X118469Y17934D01*
X118869Y18900D01*
X119006Y19937D01*
X118869Y20974D01*
X118469Y21940D01*
X117833Y22770D01*
X117003Y23406D01*
X116037Y23806D01*
X115000Y23943D01*
D02*
G37*
G36*
X53000Y71709D02*
X52170Y71599D01*
X51396Y71279D01*
X50731Y70769D01*
X50221Y70104D01*
X49901Y69330D01*
X49792Y68500D01*
X49901Y67670D01*
X50221Y66896D01*
X50731Y66231D01*
X50961Y66055D01*
Y44425D01*
X45575Y39039D01*
X37000D01*
X36220Y38884D01*
X35558Y38442D01*
X30915Y33799D01*
X30473Y33137D01*
X30318Y32357D01*
Y23539D01*
X29997Y23406D01*
X29168Y22770D01*
X28531Y21940D01*
X28131Y20974D01*
X27994Y19937D01*
X28131Y18900D01*
X28531Y17934D01*
X29168Y17105D01*
X29997Y16468D01*
X30735Y16162D01*
X30735Y15621D01*
X30098Y15357D01*
X29310Y14753D01*
X28706Y13965D01*
X28326Y13048D01*
X28301Y12863D01*
X32000D01*
X35699D01*
X35674Y13048D01*
X35294Y13965D01*
X34690Y14753D01*
X33902Y15357D01*
X33265Y15621D01*
X33265Y16162D01*
X34003Y16468D01*
X34833Y17105D01*
X35469Y17934D01*
X35869Y18900D01*
X36006Y19937D01*
X35869Y20974D01*
X35469Y21940D01*
X34833Y22770D01*
X34396Y23104D01*
Y31512D01*
X37845Y34961D01*
X46420D01*
X47200Y35116D01*
X47862Y35558D01*
X54442Y42138D01*
X54442Y42138D01*
X54884Y42800D01*
X55039Y43580D01*
X55039Y43580D01*
Y66055D01*
X55269Y66231D01*
X55779Y66896D01*
X56099Y67670D01*
X56208Y68500D01*
X56099Y69330D01*
X55779Y70104D01*
X55269Y70769D01*
X54604Y71279D01*
X53830Y71599D01*
X53000Y71709D01*
D02*
G37*
G36*
X166233Y17944D02*
X165406Y17835D01*
X164635Y17516D01*
X163973Y17008D01*
X163465Y16346D01*
X163146Y15575D01*
X163037Y14748D01*
X163146Y13921D01*
X163465Y13150D01*
X163973Y12488D01*
X164635Y11980D01*
X165406Y11661D01*
X166233Y11552D01*
X167060Y11661D01*
X167831Y11980D01*
X168493Y12488D01*
X169001Y13150D01*
X169320Y13921D01*
X169429Y14748D01*
X169320Y15575D01*
X169001Y16346D01*
X168493Y17008D01*
X167831Y17516D01*
X167060Y17835D01*
X166233Y17944D01*
D02*
G37*
G36*
X35699Y11263D02*
X32800D01*
Y8364D01*
X32985Y8389D01*
X33902Y8769D01*
X34690Y9373D01*
X35294Y10161D01*
X35674Y11078D01*
X35699Y11263D01*
D02*
G37*
G36*
X118699D02*
X115800D01*
Y8364D01*
X115985Y8389D01*
X116902Y8769D01*
X117690Y9373D01*
X118294Y10161D01*
X118674Y11078D01*
X118699Y11263D01*
D02*
G37*
G36*
X114200D02*
X111301D01*
X111326Y11078D01*
X111706Y10161D01*
X112310Y9373D01*
X113098Y8769D01*
X114015Y8389D01*
X114200Y8364D01*
Y11263D01*
D02*
G37*
G36*
X31200D02*
X28301D01*
X28326Y11078D01*
X28706Y10161D01*
X29310Y9373D01*
X30098Y8769D01*
X31015Y8389D01*
X31200Y8364D01*
Y11263D01*
D02*
G37*
%LPD*%
G36*
X189272Y153663D02*
Y147500D01*
Y138824D01*
X172861D01*
X172670Y139286D01*
X174713Y141329D01*
X175000Y141292D01*
X175830Y141401D01*
X176604Y141721D01*
X177269Y142231D01*
X177779Y142896D01*
X178099Y143670D01*
X178208Y144500D01*
X178099Y145330D01*
X177779Y146104D01*
X177269Y146769D01*
X176604Y147279D01*
X175830Y147599D01*
X175000Y147708D01*
X174170Y147599D01*
X173396Y147279D01*
X172731Y146769D01*
X172221Y146104D01*
X171901Y145330D01*
X171792Y144500D01*
X171829Y144213D01*
X169655Y142039D01*
X147752D01*
X147505Y142539D01*
X147779Y142896D01*
X148099Y143670D01*
X148208Y144500D01*
X148099Y145330D01*
X147779Y146104D01*
X147269Y146769D01*
X146604Y147279D01*
X145830Y147599D01*
X145000Y147708D01*
X144713Y147671D01*
X141885Y150499D01*
X142076Y150961D01*
X175155D01*
X181829Y144287D01*
X181792Y144000D01*
X181901Y143170D01*
X182221Y142396D01*
X182731Y141731D01*
X183396Y141221D01*
X184170Y140901D01*
X185000Y140792D01*
X185830Y140901D01*
X186604Y141221D01*
X187269Y141731D01*
X187779Y142396D01*
X188099Y143170D01*
X188208Y144000D01*
X188099Y144830D01*
X187779Y145604D01*
X187269Y146269D01*
X186604Y146779D01*
X185830Y147099D01*
X185000Y147208D01*
X184713Y147171D01*
X177442Y154442D01*
X176780Y154884D01*
X176000Y155039D01*
X108188D01*
X108018Y155539D01*
X108269Y155731D01*
X108779Y156396D01*
X109099Y157170D01*
X109208Y158000D01*
X109099Y158830D01*
X108779Y159604D01*
X108269Y160269D01*
X107604Y160779D01*
X106830Y161099D01*
X106000Y161208D01*
X105170Y161099D01*
X104396Y160779D01*
X103731Y160269D01*
X103555Y160039D01*
X102075D01*
X101838Y160539D01*
X102099Y161170D01*
X102208Y162000D01*
X102099Y162830D01*
X101779Y163604D01*
X101269Y164269D01*
X100604Y164779D01*
X99830Y165099D01*
X99000Y165208D01*
X98170Y165099D01*
X97396Y164779D01*
X96731Y164269D01*
X96555Y164039D01*
X34845D01*
X25498Y173386D01*
X25659Y173859D01*
X25835Y173882D01*
X26614Y174205D01*
X27282Y174718D01*
X27795Y175386D01*
X28118Y176165D01*
X28228Y177000D01*
Y177772D01*
X111772D01*
Y177000D01*
X111882Y176165D01*
X112205Y175386D01*
X112718Y174718D01*
X113386Y174205D01*
X114165Y173882D01*
X115000Y173772D01*
X115835Y173882D01*
X116614Y174205D01*
X117282Y174718D01*
X117795Y175386D01*
X118118Y176165D01*
X118228Y177000D01*
Y177772D01*
X165163D01*
X189272Y153663D01*
D02*
G37*
D55*
X155000Y71000D02*
X160000D01*
X186000Y41000D02*
Y45000D01*
X114000Y121000D02*
Y125000D01*
Y121000D02*
X129000Y136000D01*
X192500D01*
D56*
X9500Y167500D02*
X10000D01*
X16500Y84500D02*
X26000Y94000D01*
X16500Y55500D02*
Y84500D01*
X26000Y94000D02*
X29500D01*
X25000Y144500D02*
X28500Y141000D01*
X57000D01*
X64500Y148500D01*
X97500D01*
X99000Y147000D01*
X112500D01*
X115000Y144500D01*
X10000Y176000D02*
X24500Y161500D01*
Y159500D02*
Y161500D01*
X10000Y176000D02*
Y177500D01*
X170500Y140000D02*
X175000Y144500D01*
X97000Y140000D02*
X170500D01*
X89000Y132000D02*
X97000Y140000D01*
X10000Y92500D02*
Y94000D01*
X24000Y108000D01*
X27000D01*
X32000Y113000D01*
Y126000D01*
X38000Y132000D01*
X89000D01*
X10000Y167500D02*
X10500D01*
X23500Y154500D01*
X100500D01*
X102000Y153000D01*
X176000D01*
X185000Y144000D01*
X34000Y162000D02*
X99000D01*
X19000Y177000D02*
X34000Y162000D01*
X19000Y177000D02*
Y188000D01*
X10000Y197000D02*
X19000Y188000D01*
X10000Y197000D02*
Y197500D01*
X16000Y175000D02*
X33000Y158000D01*
X106000D01*
X10000Y187500D02*
X16000Y181500D01*
Y175000D02*
Y181500D01*
X32000Y106000D02*
X39000Y99000D01*
X26000Y151000D02*
X29000Y148000D01*
X22000Y151000D02*
X26000D01*
X15500Y157500D02*
X22000Y151000D01*
X10000Y157500D02*
X15500D01*
X39000Y99000D02*
X109000D01*
X115500Y92500D01*
Y77000D02*
Y92500D01*
Y77000D02*
X123500Y69000D01*
X134000D01*
X148000Y55000D01*
X20500Y98500D02*
X21000Y98000D01*
X33000D01*
X35000Y96000D01*
X107000D01*
X130500Y66000D02*
X141500Y55000D01*
X122000Y66000D02*
X130500D01*
X112000Y76000D02*
X122000Y66000D01*
X112000Y76000D02*
Y91000D01*
X107000Y96000D02*
X112000Y91000D01*
X61500Y151500D02*
X99000D01*
X100500Y150000D01*
X139500D01*
X55000Y145000D02*
X61500Y151500D01*
X139500Y150000D02*
X145000Y144500D01*
X119000Y218000D02*
X128000Y209000D01*
X186000D01*
X197500Y197500D01*
X200000D01*
X10000Y102500D02*
X13000D01*
X25641Y115141D01*
Y115391D01*
X10000Y122500D02*
X16000D01*
X18891Y125391D01*
X25641D01*
X46420Y37000D02*
X53000Y43580D01*
X37000Y37000D02*
X46420D01*
X32357Y32357D02*
X37000Y37000D01*
X32357Y20937D02*
Y32357D01*
X32000Y19937D02*
X32357Y20937D01*
X53000Y43580D02*
Y68500D01*
X16500Y55500D02*
X28000Y44000D01*
X10000Y147500D02*
X19500Y138000D01*
X78500D01*
X85000Y144500D01*
X85500Y135000D02*
X95000Y144500D01*
X36000Y135000D02*
X85500D01*
X33500Y132500D02*
X36000Y135000D01*
X10000Y132500D02*
X33500D01*
X163000Y183000D02*
X165000Y181000D01*
X163000Y183000D02*
Y189000D01*
X20500Y76500D02*
Y82500D01*
X28000Y90000D01*
X31000D01*
X33000Y92000D01*
X94000D01*
D57*
X163000Y181000D02*
X165000D01*
X186000Y45000D02*
X192500Y51500D01*
X25000Y177000D02*
Y181000D01*
X115000Y177000D02*
Y181000D01*
X192500Y147500D02*
X200000D01*
X166500Y181000D02*
X192500Y155000D01*
Y147500D02*
Y155000D01*
Y136000D02*
Y147500D01*
Y51500D02*
Y136000D01*
X25000Y181000D02*
X115000D01*
X163000D01*
X165000D02*
X166500D01*
D59*
X91733Y116748D02*
D03*
X166233Y14748D02*
D03*
X13887Y36272D02*
D03*
D60*
X25641Y115391D02*
D03*
Y125391D02*
D03*
X165000Y126000D02*
D03*
X175000D02*
D03*
X185000D02*
D03*
X10000Y62500D02*
D03*
Y72500D02*
D03*
Y82500D02*
D03*
Y92500D02*
D03*
Y102500D02*
D03*
Y112500D02*
D03*
Y122500D02*
D03*
Y132500D02*
D03*
Y147500D02*
D03*
Y157500D02*
D03*
Y167500D02*
D03*
Y177500D02*
D03*
Y187500D02*
D03*
Y197500D02*
D03*
Y207500D02*
D03*
Y217500D02*
D03*
X200000D02*
D03*
Y207500D02*
D03*
Y197500D02*
D03*
Y187500D02*
D03*
Y177500D02*
D03*
Y167500D02*
D03*
Y147500D02*
D03*
Y137500D02*
D03*
Y127500D02*
D03*
Y117500D02*
D03*
Y107500D02*
D03*
Y97500D02*
D03*
D61*
X32000Y12063D02*
D03*
Y19937D02*
D03*
X115000Y12063D02*
D03*
Y19937D02*
D03*
D62*
X25000Y144500D02*
D03*
X115000D02*
D03*
X24500Y159500D02*
D03*
X175000Y144500D02*
D03*
X185000Y144000D02*
D03*
X99000Y162000D02*
D03*
X106000Y158000D02*
D03*
X32000Y106000D02*
D03*
X29000Y148000D02*
D03*
X148000Y55000D02*
D03*
X141500D02*
D03*
X20500Y98500D02*
D03*
X145000Y144500D02*
D03*
X55000Y145000D02*
D03*
X119000Y218000D02*
D03*
X53000Y68500D02*
D03*
X28000Y44000D02*
D03*
X29500Y94000D02*
D03*
X85000Y144500D02*
D03*
X95000D02*
D03*
X155000Y71000D02*
D03*
X160000D02*
D03*
X186000Y41000D02*
D03*
Y45000D02*
D03*
X114000Y125000D02*
D03*
Y121000D02*
D03*
X163000Y189000D02*
D03*
X115000Y181000D02*
D03*
Y177000D02*
D03*
X25000D02*
D03*
Y181000D02*
D03*
X94000Y92000D02*
D03*
X20500Y76500D02*
D03*
X118000Y157500D02*
D03*
X113000D02*
D03*
X171500Y103500D02*
D03*
Y98500D02*
D03*
Y73500D02*
D03*
Y78500D02*
D03*
Y83500D02*
D03*
Y88500D02*
D03*
Y93500D02*
D03*
X203500Y88500D02*
D03*
Y68500D02*
D03*
Y73500D02*
D03*
Y78500D02*
D03*
Y83500D02*
D03*
X119000Y59500D02*
D03*
X114000D02*
D03*
X84500Y215500D02*
D03*
X127000Y80500D02*
D03*
X176500Y93500D02*
D03*
Y98500D02*
D03*
Y103500D02*
D03*
X203500Y63500D02*
D03*
X20500Y58000D02*
D03*
X33500Y220500D02*
D03*
Y215500D02*
D03*
X129500Y220500D02*
D03*
Y215500D02*
D03*
X186500Y98500D02*
D03*
X156000Y22500D02*
D03*
X186500Y103500D02*
D03*
Y93500D02*
D03*
X181500D02*
D03*
X135500Y120500D02*
D03*
X140500Y115500D02*
D03*
X179000Y5500D02*
D03*
X156000D02*
D03*
X197500Y157500D02*
D03*
X202000D02*
D03*
X71500Y39500D02*
D03*
X66000D02*
D03*
X102500Y187000D02*
D03*
X107500D02*
D03*
X174000Y159000D02*
D03*
X188000Y169000D02*
D03*
X128000Y19000D02*
D03*
X127000Y75500D02*
D03*
X77000Y39500D02*
D03*
X84500Y220500D02*
D03*
X20500Y63000D02*
D03*
X197500Y38500D02*
D03*
X179000Y22500D02*
D03*
X127000Y85500D02*
D03*
X202500Y38500D02*
D03*
X135500Y115500D02*
D03*
X107500Y217000D02*
D03*
X102500D02*
D03*
X188000Y174000D02*
D03*
X179000Y159000D02*
D03*
X181500Y98500D02*
D03*
Y103500D02*
D03*
X107500Y174500D02*
D03*
X102500D02*
D03*
X62500D02*
D03*
X57500D02*
D03*
X152500D02*
D03*
X147500D02*
D03*
D63*
X78000Y104000D02*
D03*
X102000D02*
D03*
X96000D02*
D03*
X90000D02*
D03*
X84000D02*
D03*
X66000D02*
D03*
X72000D02*
D03*
X60000D02*
D03*
D64*
X148000Y48000D02*
D03*
X141500D02*
D03*
X134500D02*
D03*
X127500D02*
D03*
M02*
