M48
;Layer_Color=9474304
;FILE_FORMAT=2:5
INCH,LZ
;TYPE=PLATED
T1F00S00C0.01181
T2F00S00C0.02362
T3F00S00C0.02756
T4F00S00C0.03543
T5F00S00C0.04000
%
T01
X01275Y0048
X01345
X01415
X0148
T02
X0028Y0044
X00205Y0058
Y0063
Y00765
Y00985
X00295Y0094
X0032Y0106
X0029Y0148
X0025Y01445
X0055Y0145
X0085Y01445
X0095
X0115
X0114Y0125
Y0121
X01355Y01205
Y01155
X01405
X0145Y01445
X0127Y00855
Y00805
Y00755
X0119Y00595
X0114
X01415Y0055
X0148
X0155Y0071
X0156Y00225
Y00055
X0128Y0019
X0077Y00395
X00715
X0066
X0053Y00685
X0094Y0092
X01715Y00935
Y00985
Y01035
X01765
Y00985
Y00935
X01815
X01865
Y00985
Y01035
X01815
Y00985
X01715Y00885
Y00835
Y00785
Y00735
X016Y0071
X02035Y00685
Y00735
Y00785
Y00835
Y00885
Y00635
X02025Y00385
X01975
X0186Y0041
Y0045
X0179Y00225
Y00055
X0175Y01445
X0185Y0144
X0179Y0159
X0174
X0188Y0169
Y0174
X01975Y01575
X0202
X0163Y0189
X01525Y01745
X01475
X0115Y0177
Y0181
X01075Y0187
X01025
Y01745
X01075
X0106Y0158
X0113Y01575
X0118
X0099Y0162
X00625Y01745
X00575
X0025Y0177
Y0181
X00245Y01595
X00335Y02155
Y02205
X00845
Y02155
X01025Y0217
X01075
X0119Y0218
X01295Y02205
Y02155
T03
X006Y0104
X0066
X0072
X0078
X0084
X009
X0096
X0102
T04
X0032Y0012063
Y0019937
X0115
Y0012063
T05
X001Y00625
Y00725
Y00825
Y00925
Y01025
Y01125
Y01225
Y01325
Y01475
X0025641Y0125391
Y0115391
X0165Y0126
X0175
X0185
X02Y01275
Y01375
Y01475
Y01175
Y01075
Y00975
Y01675
Y01775
Y01875
Y01975
Y02075
Y02175
X001
Y02075
Y01975
Y01875
Y01775
Y01675
Y01575
M30
